<svg width="7" height="15" viewBox="0 0 7 15" fill="none" xmlns="http://www.w3.org/2000/svg">
<path d="M3.39218 14.6002C3.84184 14.6002 3.97994 14.5911 4.233 14.5309C5.33785 14.2744 6.22587 13.5529 6.49863 12.6256C6.7769 11.6772 6.47683 10.7828 5.68124 10.1285L5.45566 9.94394V5.90976C5.45566 4.49557 5.45378 3.44936 5.44785 2.74277C5.44488 2.38989 5.44093 2.12071 5.43613 1.93222C5.43373 1.83813 5.43036 1.76269 5.42734 1.70663C5.42489 1.66117 5.42046 1.61031 5.41269 1.5748L5.41367 1.57382C5.35634 1.31312 5.20271 1.06055 5.00351 0.852142C4.80325 0.642653 4.54626 0.467406 4.26816 0.363861L4.26913 0.362885C3.83283 0.199323 3.42045 0.16045 2.96152 0.240814H2.96054C2.32991 0.352285 1.75714 0.752305 1.49179 1.28867L1.49081 1.28964L1.39999 1.47617L1.37949 1.51816V1.56406L1.36874 5.79941L1.36191 9.94101L1.1373 10.1256H1.13632C0.511717 10.6439 0.199861 11.2421 0.199799 11.981C0.199799 13.0389 0.889913 13.9027 2.02206 14.3648V14.3658C2.47865 14.551 2.78042 14.6002 3.39218 14.6002ZM2.20273 6.07773C2.20273 4.78482 2.20657 3.72825 2.21249 2.98105C2.21546 2.60736 2.21913 2.31147 2.22324 2.10214C2.22529 1.99745 2.22685 1.91521 2.2291 1.85605C2.23125 1.79945 2.23368 1.77486 2.23398 1.77011L2.26816 1.6412C2.37376 1.34668 2.65236 1.1009 3.08554 0.983002H3.08652C3.1423 0.968524 3.28829 0.95612 3.47128 0.961517H3.47226C3.59979 0.964239 3.67207 0.968796 3.73203 0.979095C3.78919 0.988939 3.84253 1.00504 3.93027 1.03867L4.09921 1.11288C4.25104 1.19024 4.3566 1.28003 4.45956 1.40878L4.53574 1.50253C4.55089 1.52245 4.55855 1.53715 4.56796 1.56308C4.59013 1.6242 4.6118 1.74039 4.62558 2.02109C4.65278 2.57547 4.64902 3.67674 4.64902 6.02792V10.3414L4.73984 10.401L4.93222 10.5269L5.08554 10.6363C5.81646 11.2053 5.99622 12.0447 5.5748 12.7623C5.01092 13.7161 3.55623 14.1438 2.33163 13.6539C1.74407 13.4188 1.34493 13.0135 1.16269 12.5631C1.0041 12.1709 1.00514 11.7352 1.1998 11.3238L1.2955 11.15V11.148C1.44511 10.9029 1.68346 10.6649 1.91367 10.5221L2.10703 10.4039L2.20273 10.3453V6.07773Z" fill="#535353" stroke="#535353" stroke-width="0.4"/>
</svg>
